<svg width="300" height="200" viewBox="0 0 300 200" fill="none" xmlns="http://www.w3.org/2000/svg">
  <rect width="300" height="200" fill="white"/>
  <path d="M150 50C115.147 50 87 78.1472 87 113C87 147.853 115.147 176 150 176C184.853 176 213 147.853 213 113C213 78.1472 184.853 50 150 50ZM150 166C120.699 166 97 142.301 97 113C97 83.6995 120.699 60 150 60C179.301 60 203 83.6995 203 113C203 142.301 179.301 166 150 166Z" fill="#6B7280"/>
  <path d="M150 80C137.85 80 128 89.8497 128 102C128 114.15 137.85 124 150 124C162.15 124 172 114.15 172 102C172 89.8497 162.15 80 150 80ZM150 114C143.373 114 138 108.627 138 102C138 95.3726 143.373 90 150 90C156.627 90 162 95.3726 162 102C162 108.627 156.627 114 150 114Z" fill="#6B7280"/>
  <path d="M150 134C130.67 134 115 149.67 115 169H125C125 155.193 136.193 144 150 144C163.807 144 175 155.193 175 169H185C185 149.67 169.33 134 150 134Z" fill="#6B7280"/>
</svg>